<?xml version="1.0" encoding="utf-8"?>
<!-- Generator: Adobe Illustrator 25.0.1, SVG Export Plug-In . SVG Version: 6.00 Build 0)  -->
<svg version="1.1" id="Outline" xmlns="http://www.w3.org/2000/svg" xmlns:xlink="http://www.w3.org/1999/xlink" x="0px" y="0px"
	 viewBox="0 0 512 512" style="enable-background:new 0 0 512 512;" xml:space="preserve">
<style type="text/css">
	.st0{fill:#53DF8A;}
</style>
<path class="st0" d="M341.3,0h-2.8c-19.6,0.2-36.7,13.6-41.4,32.7c-6.2,22.7-29.7,36.1-52.4,29.9c-14.5-4-25.9-15.3-29.9-29.9
	C210.1,13.6,193.1,0.2,173.4,0h-2.8C111.8,0.1,64.1,47.8,64,106.7V448c0,35.3,28.7,64,64,64h45.4c19.6-0.2,36.7-13.6,41.4-32.7
	c6.2-22.7,29.7-36.1,52.4-29.9c14.5,4,25.9,15.3,29.9,29.9c4.7,19.1,21.8,32.5,41.4,32.7H384c35.3,0,64-28.7,64-64V106.7
	C447.9,47.8,400.2,0.1,341.3,0z M384,469.3l-45.7-1.3c-12.6-45.4-59.6-72-105-59.5c-29.4,8.1-52.2,31.3-59.8,60.8H128
	c-11.8,0-21.3-9.6-21.3-21.3v-85.3h42.7c11.8,0,21.3-9.6,21.3-21.3s-9.6-21.3-21.3-21.3h-42.7V106.7c0-35.3,28.7-64,64-64l3.1,1.3
	c10.3,37,43.9,62.6,82.3,62.7c38.9-0.3,72.8-26.5,83.1-64h2.3c35.3,0,64,28.7,64,64V320h-42.7c-11.8,0-21.3,9.6-21.3,21.3
	s9.6,21.3,21.3,21.3h42.7V448C405.3,459.8,395.8,469.3,384,469.3z"/>
<path class="st0" d="M277.3,320h-42.7c-11.8,0-21.3,9.6-21.3,21.3s9.6,21.3,21.3,21.3h42.7c11.8,0,21.3-9.6,21.3-21.3
	S289.1,320,277.3,320z"/>
</svg>
